<svg id="svgexport-6_90_" data-name="svgexport-6 (90)" xmlns="http://www.w3.org/2000/svg" width="50.059" height="50.059" viewBox="0 0 50.059 50.059">
  <defs>
    <style>
      .cls-1 {
        fill: #fff;
      }
    </style>
  </defs>
  <path id="Path_14114" data-name="Path 14114" class="cls-1" d="M25.03,0a25.03,25.03,0,1,0,25.03,25.03A25.03,25.03,0,0,0,25.03,0ZM46.677,33.8l-7.118,1.228a37.351,37.351,0,0,0,1.31-9.162h7.5A23.206,23.206,0,0,1,46.677,33.8ZM1.689,25.864h7.5a37.352,37.352,0,0,0,1.31,9.162L3.382,33.8a23.206,23.206,0,0,1-1.693-7.934Zm1.693-9.6L10.5,15.033A37.351,37.351,0,0,0,9.191,24.2h-7.5a23.206,23.206,0,0,1,1.693-7.934ZM25.864,13.4a57.4,57.4,0,0,1,8.944.817l2.945.508A35.813,35.813,0,0,1,39.2,24.2H25.864Zm9.228-.828a59.139,59.139,0,0,0-9.228-.841V1.715c4.783.46,8.938,4.839,11.293,11.212Zm-10.9-.841a59.129,59.129,0,0,0-9.228.841l-2.065.357C15.257,6.55,19.412,2.169,24.2,1.712Zm-8.943,2.485A57.381,57.381,0,0,1,24.2,13.4V24.2H10.859a35.813,35.813,0,0,1,1.447-9.475ZM10.859,25.864H24.2v10.8a57.4,57.4,0,0,1-8.944-.817l-2.945-.508a35.813,35.813,0,0,1-1.447-9.475Zm4.108,11.627a59.338,59.338,0,0,0,9.228.845V48.348c-4.783-.46-8.938-4.839-11.293-11.213Zm10.9.845a59.332,59.332,0,0,0,9.228-.845l2.065-.357C34.8,43.509,30.647,47.89,25.864,48.347Zm8.943-2.49a57.381,57.381,0,0,1-8.943.817v-10.8H39.2a35.813,35.813,0,0,1-1.447,9.475ZM40.868,24.2a37.352,37.352,0,0,0-1.31-9.162l7.118,1.228A23.206,23.206,0,0,1,48.37,24.2Zm4.964-9.773-6.823-1.177A23.007,23.007,0,0,0,32.371,2.857,23.472,23.472,0,0,1,45.833,14.422ZM17.688,2.857A23.007,23.007,0,0,0,11.05,13.245L4.227,14.422A23.472,23.472,0,0,1,17.688,2.857ZM4.227,35.637l6.823,1.177A23.007,23.007,0,0,0,17.688,47.2,23.472,23.472,0,0,1,4.227,35.637ZM32.371,47.2a23.007,23.007,0,0,0,6.638-10.387l6.823-1.177A23.472,23.472,0,0,1,32.372,47.2Zm0,0"/>
</svg>
